<?xml version="1.0" encoding="utf-8"?>
<!DOCTYPE svg PUBLIC "-//W3C//DTD SVG 1.1//EN" "http://www.w3.org/Graphics/SVG/1.1/DTD/svg11.dtd">
<svg version="1.1" id="Layer_1"
	 xmlns="http://www.w3.org/2000/svg" xmlns:xlink="http://www.w3.org/1999/xlink" x="0px" y="0px" viewBox="0 0 1831 135"
	 enable-background="new 0 0 1831 135" xml:space="preserve">
<path id="da-się-prościej"  fill="#ffffff" d="M113.1,138.1
	c0,20.1-11.8,36.8-32.6,36.8c-19.3,0-32.5-14.3-32.5-36.8c0-22.2,13-37.4,32.5-37.4C99.5,100.7,113.1,114.2,113.1,138.1L113.1,138.1
	z M114.8,213.2h44.9V5.1h-48.1v68.5c-3.2-3.7-17.2-15.3-40.3-15.3c-43.7,0-71.4,32.6-71.4,79.5c0,46.4,30.5,79.2,74,79.2
	c22.2,0,36.6-10.7,40.9-15.6L114.8,213.2z M179.3,166.3c0,32.8,26.5,50.7,56.1,50.7c15.6,0,26.5-4.3,34.3-12.1l2.6,8.3h42.9v-93.5
	c0-34.6-13.3-61.4-65.4-61.4c-25,0-45.5,8.1-61.6,18.8l17.9,32.2c11.8-5.8,24.7-9.5,38-9.5c15.5,0,23,7.2,23,16.4l0,5.5
	c-5.5-2.3-15.8-5.5-29.1-5.5C202.3,116.2,179.3,136.1,179.3,166.3L179.3,166.3z M227.4,164.6c0-9.8,8.6-16.1,20.1-16.1
	c11.5,0,20.5,5.7,20.5,16.1c0,10.1-8.7,15.5-20.2,15.5C236.6,180.1,227.4,174.7,227.4,164.6L227.4,164.6z M445.9,217
	c34.5,0,61.6-19,61.6-49.8c0-54.7-69.7-43.8-69.7-62.8c0-4.6,4-7.5,11-7.5c11.8,0,20.4,7.2,25,11.8l31.1-24.4
	c-8.9-12.1-25.3-26-54.1-26c-32.8,0-58.2,17.6-58.2,46.7c0,55,69.1,47.5,69.1,64.8c0,5.4-4.3,8.3-13.5,8.3c-15.3,0-25.4-6-33.4-13.2
	l-27.1,26.2C396.6,203.2,417.1,217,445.9,217L445.9,217z M573.4,62.1h-48.1v151.1h48.1V62.1z M548.9,52.9c15.3,0,27.1-11,27.1-25.9
	c0-15.3-11.8-26.2-27.1-26.2c-15.2,0-26.7,10.9-26.7,26.2C522.2,41.9,533.7,52.9,548.9,52.9L548.9,52.9z M741.8,150.2
	c0.3-3.5,0.3-6.6,0.3-9.5c0-51.5-26.2-82.4-74.3-82.4c-44.3,0-74.2,35.5-74.2,79.8c0,41.5,25.9,73.7,69.4,78.3
	c-7.8,5.5-16.7,15.3-16.7,29.1c0,20.1,16.1,28.5,32.8,28.5c9.2,0,17-1.5,19.3-2.3l0-31.7c-5.2,0-13-2.6-13-10.9
	c0-10.1,11-14.7,13.5-15.9c23.1-7.2,35.7-22.7,39.2-29.6l-31.7-24.5c-2.9,4.3-13.5,16.1-31.6,16.1c-17.9,0-30.8-11.5-32-25H741.8z
	 M668.7,97.2c15,0,23.9,10.4,24.5,22.5h-49C645.4,109,652.9,97.2,668.7,97.2L668.7,97.2z M864.5,137.2c0-20.1,11.8-36.8,32.5-36.8
	c19.3,0,32.6,14.4,32.6,36.8c0,22.2-13,37.5-32.6,37.5C878,174.7,864.5,161.1,864.5,137.2L864.5,137.2z M862.8,62.1h-44.9v205h48.1
	v-65.4c3.2,3.8,17.3,15.3,40.3,15.3c43.8,0,71.4-32.6,71.4-79.5c0-46.3-30.5-79.2-74-79.2c-22.1,0-36.5,10.7-40.8,15.6L862.8,62.1z
	 M1084.7,58.3c-18.7,0-32.8,9.3-40,23.9l0-20.1h-46.9v151.1h48.1v-66.8c0-22.7,7.7-39.7,31.1-39.7c3.4,0,5.7,0.3,7.7,0.6
	L1084.7,58.3z M1093.4,138.1c0,45.5,33.9,78.9,82,78.9c47.8,0,82.9-34,82.9-79.5c0-45.8-34.2-79.2-82.9-79.2
	C1128.8,58.3,1093.4,92.3,1093.4,138.1L1093.4,138.1z M1141.4,138.1c0-22.2,14.2-37.4,34-37.4c19.6,0,34.9,14.7,34.9,36.8
	c0,21.6-15,37.2-34.9,37.2C1155.8,174.7,1141.4,160,1141.4,138.1L1141.4,138.1z M1326.6,217c34.5,0,61.6-19,61.6-49.8
	c0-54.7-69.7-43.8-69.7-62.8c0-4.6,4-7.5,10.9-7.5c11.8,0,20.5,7.2,25.1,11.8l31.1-24.4c-8.9-12.1-25.4-26-54.1-26
	c-32.9,0-58.2,17.6-58.2,46.7c0,55,69.1,47.5,69.1,64.8c0,5.4-4.3,8.3-13.5,8.3c-15.3,0-25.4-6-33.4-13.2l-27.1,26.2
	C1277.3,203.2,1297.8,217,1326.6,217L1326.6,217z M1324.3,4.5l-19,41.8h40l28.8-41.8H1324.3z M1483.5,174.7
	c-22.2,0-37.2-15-37.2-37.2c0-20.1,12.7-36,35.4-36c11.3,0,21.9,4.3,30.3,11.3l12.9-40.6c-10.7-7.5-25.3-13.9-44.9-13.9
	c-46.6,0-81.7,33.2-81.7,79.5c0,46.4,33.9,79.2,82,79.2c19,0,34.3-6.6,44.3-13.6L1512,164C1505.4,169.5,1494.7,174.7,1483.5,174.7
	L1483.5,174.7z M1592,62.1h-48.1v151.1h48.1V62.1z M1567.5,52.9c15.3,0,27.1-11,27.1-25.9c0-15.3-11.8-26.2-27.1-26.2
	c-15.2,0-26.7,10.9-26.7,26.2C1540.8,41.9,1552.3,52.9,1567.5,52.9L1567.5,52.9z M1760.4,150.2c0.3-3.5,0.3-6.6,0.3-9.5
	c0-51.5-26.2-82.4-74.3-82.4c-44.3,0-74.2,35.5-74.2,79.8c0,44.6,30.5,78.9,80.3,78.9c39.1,0,59.9-24.5,64.2-33.4l-31.7-24.5
	c-2.9,4.3-13.5,16.1-31.7,16.1c-17.8,0-30.8-11.5-31.9-25H1760.4z M1687.3,97.2c15,0,23.9,10.4,24.5,22.5h-49
	C1664,109,1671.5,97.2,1687.3,97.2L1687.3,97.2z M1828.1,62.1H1780v149.4c0,9.5-4.9,16.1-19,16.1c-3.2,0-6.9-0.5-6.9-0.5l0,40.5
	c0,0,5.5,0.9,10.6,0.9c36.3,0,63.4-14.1,63.4-54.7L1828.1,62.1z M1803.6,52.9c15.3,0,27.1-11,27.1-25.9c0-15.3-11.8-26.2-27.1-26.2
	c-15.2,0-26.8,10.9-26.8,26.2C1776.8,41.9,1788.4,52.9,1803.6,52.9L1803.6,52.9z"/>
</svg>
