<?xml version="1.0" encoding="UTF-8" standalone="no"?>
<svg width="380px" height="431px" viewBox="0 0 380 431" version="1.1" xmlns="http://www.w3.org/2000/svg" xmlns:xlink="http://www.w3.org/1999/xlink" xmlns:sketch="http://www.bohemiancoding.com/sketch/ns">
    <!-- Generator: Sketch 3.3.2 (12043) - http://www.bohemiancoding.com/sketch -->
    <title>finalowy copy 10</title>
    <desc>Created with Sketch.</desc>
    <defs></defs>
    <g id="Page-1" stroke="none" stroke-width="1" fill="none" fill-rule="evenodd" sketch:type="MSPage">
        <g id="finalowy-copy-10" sketch:type="MSArtboardGroup" transform="translate(-1496.000000, -4.000000)" stroke="#F0EADB" stroke-width="10">
            <g id="Group-Copy-3" sketch:type="MSLayerGroup" transform="translate(1688.500000, 181.000000) scale(-1, 1) rotate(-180.000000) translate(-1688.500000, -181.000000) translate(1501.000000, -66.000000)">
                <path d="M142,374 C161.329966,374 177,358.329966 177,339 C177,319.670034 161.329966,304 142,304 C122.670034,304 107,319.670034 107,339 C107,358.329966 122.670034,374 142,374 Z" id="Oval-1-Copy" sketch:type="MSShapeGroup"></path>
                <circle id="Oval-1-Copy-3" sketch:type="MSShapeGroup" cx="239.5" cy="269.5" r="61.5"></circle>
                <rect id="Rectangle-119-Copy-4" sketch:type="MSShapeGroup" transform="translate(157.826719, 90.774991) rotate(-330.000000) translate(-157.826719, -90.774991) " x="118.826719" y="51.7749907" width="78" height="78"></rect>
                <circle id="Oval-7" sketch:type="MSShapeGroup" cx="95.5" cy="27.5" r="27.5"></circle>
                <rect id="Rectangle-119-Copy" sketch:type="MSShapeGroup" transform="translate(65.000000, 420.000000) rotate(-345.000000) translate(-65.000000, -420.000000) " x="12" y="367" width="106" height="106"></rect>
                <path d="M182.5,357.751768 L235.5,443.77828 L129.5,443.77828 L182.5,357.751768 Z" id="Rectangle-119-Copy-2" sketch:type="MSShapeGroup" transform="translate(182.500000, 400.765024) rotate(-345.000000) translate(-182.500000, -400.765024) "></path>
                <rect id="Rectangle-119-Copy-3" sketch:type="MSShapeGroup" transform="translate(293.500000, 412.500000) rotate(-285.000000) translate(-293.500000, -412.500000) " x="227" y="346" width="133" height="133"></rect>
            </g>
        </g>
    </g>
</svg>