<?xml version="1.0" encoding="UTF-8" standalone="no"?>
<svg width="638px" height="146px" viewBox="0 0 638 146" version="1.1" xmlns="http://www.w3.org/2000/svg" xmlns:xlink="http://www.w3.org/1999/xlink" xmlns:sketch="http://www.bohemiancoding.com/sketch/ns">
    <!-- Generator: Sketch 3.3.2 (12043) - http://www.bohemiancoding.com/sketch -->
    <title>Slice 1</title>
    <desc>Created with Sketch.</desc>
    <defs></defs>
    <g id="Page-1" stroke="none" stroke-width="1" fill="none" fill-rule="evenodd" sketch:type="MSPage">
        <path d="M6,110.000996 L55.8042998,110.502493 L87.3527426,133 L81.3507882,110.872307 L121.844232,111.743618 L123,12 L32.5369254,28.3000229 L32.3859015,81.787984 L94.6929241,81.787984 L94.7197223,56.5199656 L6.23697396,56.7942416 L6,110.000996 Z" id="Path-25-Copy-Copy" stroke="#444444" stroke-width="9.984" sketch:type="MSShapeGroup"></path>
        <path d="M210.279996,55.9629338 L211.579028,68.6049479 L234.61895,68.0245942 L235.06059,38.3932162 L188.085283,44.5270857 L192.452953,87.5278142 L251.489611,91.5705919 L264.05961,12 L160,26.8619052 L170.632874,110.096454 L266.075928,116 L272,83.5820148" id="Path-26-Copy-Copy" stroke="#444444" stroke-width="9.984" sketch:type="MSShapeGroup"></path>
        <path d="M309.637265,89.4160134 L309,127.716625 L414.37278,128 L416,57.3991311 L327.800079,55.5969258 L327.348999,109.342227 L395.023229,109.576124 L396.981949,18.9081035 L343.419888,29.1950675 L343.242785,81.2925954 L375.726658,81.2536126 L376.109623,1" id="Path-27-Copy-2-Copy" stroke="#444444" stroke-width="9.984" sketch:type="MSShapeGroup"></path>
        <path d="M489.309425,48.328782 L488.84602,83.7387575 L543.938211,75.2990017 L547.058786,46.3171696 L464,46.1617127 L464.282412,114 L526.681431,104.54822 L534.790245,31 L564.265636,31.4803618 L558.525339,89.7083029 L572.975161,74.0195914 L580.848372,84.9917402 L637,85.3368546" id="Path-28-Copy-3-Copy" stroke="#444444" stroke-width="9.984" sketch:type="MSShapeGroup"></path>
    </g>
</svg>