<?xml version="1.0" encoding="UTF-8" standalone="no"?>
<svg width="151px" height="45px" viewBox="0 0 151 45" version="1.1" xmlns="http://www.w3.org/2000/svg" xmlns:xlink="http://www.w3.org/1999/xlink" xmlns:sketch="http://www.bohemiancoding.com/sketch/ns">
    <!-- Generator: Sketch 3.3.2 (12043) - http://www.bohemiancoding.com/sketch -->
    <title>Slice 1</title>
    <desc>Created with Sketch.</desc>
    <defs></defs>
    <g id="Page-1" stroke="none" stroke-width="1" fill="none" fill-rule="evenodd" sketch:type="MSPage">
        <g id="Rectangle-2-+-Path-10-Copy" sketch:type="MSLayerGroup" transform="translate(53.000000, 0.000000)">
            <path d="M0,0 L45,0 L45,45 L0,45 L0,0 Z M11.6129032,11.6129032 L34.1129032,11.6129032 L34.1129032,34.1129032 L11.6129032,34.1129032 L11.6129032,11.6129032 Z" id="Rectangle-2" fill="#000000" sketch:type="MSShapeGroup"></path>
            <path d="M25.4176385,28.2996502 L19.5823615,22.5288254 L25.4176385,16.6935484" id="Path-10-Copy" stroke="#000000" stroke-width="3" sketch:type="MSShapeGroup"></path>
        </g>
        <g id="Rectangle-2-Copy-+-Path-10-Copy-2" sketch:type="MSLayerGroup" transform="translate(106.000000, 0.000000)">
            <path d="M0,0 L45,0 L45,45 L0,45 L0,0 Z M11.6129032,11.6129032 L34.1129032,11.6129032 L34.1129032,34.1129032 L11.6129032,34.1129032 L11.6129032,11.6129032 Z" id="Rectangle-2-Copy" fill="#000000" sketch:type="MSShapeGroup"></path>
            <path d="M20.3081679,16.6935484 L26.143445,22.4643731 L20.3081679,28.2996502" id="Path-10-Copy-2" stroke="#000000" stroke-width="3" sketch:type="MSShapeGroup"></path>
        </g>
        <g id="Group" sketch:type="MSLayerGroup" fill="#000000">
            <rect id="Rectangle-5-Copy-2" sketch:type="MSShapeGroup" x="16.6935484" y="0" width="11.6129032" height="11.6129032"></rect>
            <rect id="Rectangle-5-Copy-5" sketch:type="MSShapeGroup" x="33.3870968" y="0" width="11.6129032" height="11.6129032"></rect>
            <rect id="Rectangle-5-Copy-6" sketch:type="MSShapeGroup" x="0" y="0" width="11.6129032" height="11.6129032"></rect>
            <rect id="Rectangle-5-Copy-7" sketch:type="MSShapeGroup" x="0" y="16.6935484" width="11.6129032" height="11.6129032"></rect>
            <rect id="Rectangle-5-Copy-8" sketch:type="MSShapeGroup" x="0" y="33.3870968" width="11.6129032" height="11.6129032"></rect>
            <rect id="Rectangle-5-Copy-9" sketch:type="MSShapeGroup" x="33.3870968" y="33.3870968" width="11.6129032" height="11.6129032"></rect>
            <rect id="Rectangle-5-Copy-10" sketch:type="MSShapeGroup" x="33.3870968" y="16.6935484" width="11.6129032" height="11.6129032"></rect>
            <rect id="Rectangle-5-Copy-3" sketch:type="MSShapeGroup" x="16.6935484" y="33.3870968" width="11.6129032" height="11.6129032"></rect>
            <rect id="Rectangle-5-Copy-4" sketch:type="MSShapeGroup" x="16.6935484" y="16.6935484" width="11.6129032" height="11.6129032"></rect>
        </g>
    </g>
</svg>