<?xml version="1.0" encoding="UTF-8" standalone="no"?>
<svg width="149px" height="68px" viewBox="0 0 149 68" version="1.1" xmlns="http://www.w3.org/2000/svg" xmlns:xlink="http://www.w3.org/1999/xlink" xmlns:sketch="http://www.bohemiancoding.com/sketch/ns">
    <!-- Generator: Sketch 3.3.2 (12043) - http://www.bohemiancoding.com/sketch -->
    <title>finalowy copy 5</title>
    <desc>Created with Sketch.</desc>
    <defs></defs>
    <g id="Page-1" stroke="none" stroke-width="1" fill="none" fill-rule="evenodd" sketch:type="MSPage">
        <g id="finalowy-copy-5" sketch:type="MSArtboardGroup" transform="translate(-347.000000, -47.000000)" fill="#202034">
            <g id="WEBDESIGN-+-COPYWRIT-+-SVGID_1_-Copy-Copy-Copy-Copy-Copy-Copy-Copy-Copy-Copy-Copy-+-Rectangle-59-Copy-+-Group-Copy-Copy-Copy" sketch:type="MSLayerGroup" transform="translate(347.000000, 42.000000)">
                <g id="WEBDESIGN-+-COPYWRIT-+-SVGID_1_-Copy-Copy-Copy-Copy-Copy-Copy-Copy-Copy-Copy-Copy" transform="translate(0.146410, 5.647764)" sketch:type="MSShapeGroup">
                    <path d="M143.758269,33.7211656 C146.109618,33.7211656 147.910652,32.0138338 147.910652,29.7039143 C147.910652,27.3437792 146.109618,25.686663 143.758269,25.686663 C141.40692,25.686663 139.655915,27.3939948 139.655915,29.7039143 C139.655915,32.0138338 141.456949,33.7211656 143.758269,33.7211656 L143.758269,33.7211656 Z M147.510422,35.1272036 L140.156202,35.1272036 L140.156202,58.176183 C140.156202,59.6324366 139.405772,60.6367494 137.254537,60.6367494 C136.75425,60.6367494 136.203934,60.5363181 136.203934,60.5363181 L136.203934,66.8132733 C136.203934,66.8132733 137.054422,66.9639202 137.854882,66.9639202 C143.408068,66.9639202 147.560451,64.8046476 147.560451,58.5276924 L147.560451,35.1272036 L147.510422,35.1272036 Z M126.798537,40.5504928 C129.099858,40.5504928 130.450633,42.1573934 130.55069,44.0153721 L123.046384,44.0153721 C123.246499,42.3582559 124.397159,40.5504928 126.798537,40.5504928 L126.798537,40.5504928 Z M138.054997,47.2291731 C138.054997,39.2951018 134.0527,34.5246159 126.69848,34.5246159 C119.894576,34.5246159 115.341963,39.9981208 115.341963,46.827448 C115.341963,53.7069909 119.994633,58.9796332 127.649025,58.9796332 C133.65247,58.9796332 136.804279,55.2134601 137.454652,53.8576378 L132.601867,50.0914647 C132.151609,50.744268 130.55069,52.5520311 127.749083,52.5520311 C124.997504,52.5520311 123.046384,50.7944837 122.846269,48.6854267 L138.004968,48.6854267 C138.054997,48.1330547 138.054997,47.6811139 138.054997,47.2291731 Z M109.788777,33.7211656 C112.140126,33.7211656 113.94116,32.0138338 113.94116,29.7039143 C113.94116,27.3437792 112.140126,25.686663 109.788777,25.686663 C107.437428,25.686663 105.686423,27.3939948 105.686423,29.7039143 C105.686423,32.0138338 107.487456,33.7211656 109.788777,33.7211656 L109.788777,33.7211656 Z M113.54093,35.1272036 L106.18671,35.1272036 L106.18671,58.4272612 L113.54093,58.4272612 L113.54093,35.1272036 L113.54093,35.1272036 Z M97.7818871,52.4515998 C94.379935,52.4515998 92.0786145,50.1416803 92.0786145,46.7270167 C92.0786145,43.613647 94.0297341,41.2032962 97.4817149,41.2032962 C99.1826909,41.2032962 100.833638,41.8560995 102.084356,42.910628 L104.085504,36.6336728 C102.434557,35.4787131 100.183265,34.5246159 97.2315713,34.5246159 C90.0774662,34.5246159 84.7243945,39.6466113 84.7243945,46.7772324 C84.7243945,53.9078534 89.92738,58.9796332 97.2816,58.9796332 C100.183265,58.9796332 102.534614,57.9753204 104.085504,56.8705763 L102.134385,50.7944837 C101.13381,51.6983652 99.4828632,52.4515998 97.7818871,52.4515998 L97.7818871,52.4515998 Z M74.2683946,58.9796332 C79.5714376,58.9796332 83.7238203,56.067126 83.7238203,51.2966401 C83.7238203,42.8604123 73.0677057,44.5677442 73.0677057,41.6050213 C73.0677057,40.9020023 73.6680502,40.4500616 74.718653,40.4500616 C76.5196865,40.4500616 77.8704616,41.5548057 78.5708635,42.2578246 L83.3235907,38.4916515 C81.9728156,36.6336728 79.4213515,34.4744002 75.0188253,34.4744002 C70.0159545,34.4744002 66.1137153,37.1860449 66.1137153,41.655237 C66.1137153,50.1416803 76.6697726,48.9867206 76.6697726,51.6481496 C76.6697726,52.5018155 76.0193994,52.9537563 74.6185956,52.9537563 C72.2672463,52.9537563 70.7163564,51.9996591 69.5156674,50.894915 L65.3632847,54.9121663 C66.7140598,56.8705763 69.8658684,58.9796332 74.2683946,58.9796332 L74.2683946,58.9796332 Z M47.1028065,46.827448 C47.1028065,43.4127844 49.254041,41.0526493 52.3057921,41.0526493 C55.3075145,41.0526493 57.6588638,43.3123531 57.6588638,46.7270167 C57.6588638,50.0412491 55.3575433,52.4515998 52.3057921,52.4515998 C49.3040697,52.4515998 47.1028065,50.191896 47.1028065,46.827448 L47.1028065,46.827448 Z M52.3057921,58.9796332 C59.6099834,58.9796332 65.0130838,53.7572065 65.0130838,46.7270167 C65.0130838,39.6968269 59.7600695,34.5246159 52.3057921,34.5246159 C45.1516869,34.5246159 39.7485866,39.7470426 39.7485866,46.827448 C39.7485866,53.8576378 44.9515721,58.9796332 52.3057921,58.9796332 L52.3057921,58.9796332 Z M39.2482995,34.5246159 C36.3966632,34.5246159 34.2454287,35.9306538 33.1447972,38.1903577 L33.1447972,35.0769879 L25.9406633,35.0769879 L25.9406633,58.3770455 L33.2948833,58.3770455 L33.2948833,48.1330547 C33.2948833,44.6179598 34.4955723,42.0067464 38.0476105,42.0067464 C38.5979263,42.0067464 38.9481272,42.0569621 39.2482995,42.1071777 L39.2482995,34.5246159 L39.2482995,34.5246159 Z M6.92975452,35.1272036 L0.0758216076,35.1272036 L0.0758216076,66.712842 L7.43004159,66.712842 L7.43004159,56.6194981 C7.93032867,57.1718701 10.0815631,58.9796332 13.5835726,58.9796332 C20.2874194,58.9796332 24.4898308,53.9580691 24.4898308,46.7270167 C24.4898308,39.5963957 19.837161,34.5246159 13.1833429,34.5246159 C9.78139084,34.5246159 7.58012771,36.181732 6.92975452,36.9349667 L6.92975452,35.1272036 L6.92975452,35.1272036 Z M7.22992676,46.7270167 C7.22992676,43.613647 9.03096023,41.0526493 12.2327975,41.0526493 C15.1844912,41.0526493 17.2356682,43.2621375 17.2356682,46.7270167 C17.2356682,50.1416803 15.2345199,52.5018155 12.2327975,52.5018155 C9.28110376,52.4515998 7.22992676,50.3927585 7.22992676,46.7270167 Z M74.2683946,11.8773616 C76.0694281,11.8773616 77.120031,13.1327527 77.2200884,14.5890063 L71.3667296,14.5890063 C71.466787,13.2833996 72.3673038,11.8773616 74.2683946,11.8773616 Z M83.0734471,18.2547481 C83.1234758,17.8530229 83.1234758,17.4512978 83.1234758,17.0997883 C83.1234758,10.8730488 79.9716673,7.15709133 74.2183659,7.15709133 C68.915323,7.15709133 65.313256,11.4254208 65.313256,16.7984945 C65.313256,21.8200586 68.4150359,25.686663 73.6180214,26.2390351 C72.667476,26.8918384 71.6168731,28.0970138 71.6168731,29.7541299 C71.6168731,32.1644807 73.5679927,33.1687936 75.569141,33.1687936 C76.6697726,33.1687936 77.620318,33.0181466 77.8704616,32.8674997 L77.8704616,29.051111 C77.2701171,29.051111 76.3195716,28.7498171 76.3195716,27.7455043 C76.3195716,26.5403289 77.620318,25.9879568 77.9204903,25.8373099 C80.6720692,24.983644 82.2229591,23.0754496 82.6231888,22.2719994 L78.821007,19.3092765 C78.4708061,19.811433 77.2200884,21.2676866 75.0188253,21.2676866 C72.8675908,21.2676866 71.3167009,19.8616486 71.1666148,18.2547481 L83.0734471,18.2547481 L83.0734471,18.2547481 Z M60.7606436,6.50428799 C62.6117058,6.50428799 64.0125096,5.19868132 64.0125096,3.39091823 C64.0125096,1.5329395 62.6117058,0.227332823 60.7606436,0.227332823 C58.9095815,0.227332823 57.5588064,1.5329395 57.5588064,3.39091823 C57.5588064,5.19868132 58.9596102,6.50428799 60.7606436,6.50428799 L60.7606436,6.50428799 Z M63.7123374,7.6090321 L57.959036,7.6090321 L57.959036,25.8373099 L63.7123374,25.8373099 L63.7123374,7.6090321 L63.7123374,7.6090321 Z M49.3040697,26.3394663 C53.4564524,26.3394663 56.7083184,24.0295468 56.7083184,20.3135894 C56.7083184,13.7353404 48.3535242,15.040947 48.3535242,12.7310275 C48.3535242,12.1786555 48.8538113,11.827146 49.6542706,11.827146 C51.0550744,11.827146 52.1056773,12.6808119 52.6559931,13.2331839 L56.3581174,10.2704611 C55.3075145,8.8142075 53.3063663,7.15709133 49.8543854,7.15709133 C45.9021176,7.15709133 42.9003951,9.26614827 42.9003951,12.7812432 C42.9003951,19.4097078 51.2051605,18.5058263 51.2051605,20.6148832 C51.2051605,21.2676866 50.7048735,21.619196 49.6042419,21.619196 C47.7531797,21.619196 46.5524908,20.8659614 45.6019453,20.0122955 L42.3500793,23.1758809 C43.4006822,24.6321345 45.8520889,26.3394663 49.3040697,26.3394663 L49.3040697,26.3394663 Z M26.3909217,20.0122955 C26.3909217,18.8071201 27.4415245,18.0538855 28.7922996,18.0538855 C30.1931034,18.0538855 31.2437063,18.7569045 31.2437063,20.0122955 C31.2437063,21.2174709 30.1931034,21.8702743 28.8423283,21.8702743 C27.4915532,21.8702743 26.3909217,21.2174709 26.3909217,20.0122955 L26.3909217,20.0122955 Z M20.6376203,20.2131581 C20.6376203,24.1801938 23.7894289,26.3394663 27.3414671,26.3394663 C29.1925293,26.3394663 30.4932757,25.8373099 31.4438211,24.8832127 L31.7439934,25.8875256 L36.8969502,25.8875256 L36.8969502,14.5890063 C36.8969502,10.421108 35.2960316,7.20730697 29.0424432,7.20730697 C26.0407207,7.20730697 23.5893141,8.16140416 21.6381945,9.46701083 L23.7894289,13.3336152 C25.1902327,12.6305962 26.7411226,12.1786555 28.3420413,12.1786555 C30.1931034,12.1786555 31.0936202,13.0323214 31.0936202,14.1370655 L31.0936202,14.7898688 C30.443247,14.488575 29.1925293,14.1370655 27.5916107,14.1370655 C23.3891992,14.1370655 20.6376203,16.5474163 20.6376203,20.2131581 L20.6376203,20.2131581 Z M13.8337161,25.8875256 L19.2368165,25.8875256 L19.2368165,0.729489237 L13.4835152,0.729489237 L13.4835152,9.01507006 C13.0832855,8.56312929 11.4323382,7.15709133 8.63073057,7.15709133 C3.37771629,7.15709133 0.0758216076,11.124127 0.0758216076,16.7482788 C0.0758216076,22.322215 3.72791725,26.2892507 8.93090281,26.2892507 C11.5824243,26.2892507 13.3334291,24.983644 13.8337161,24.431272 L13.8337161,25.8875256 L13.8337161,25.8875256 Z M13.6336013,16.7984945 C13.6336013,19.2088453 12.2327975,21.2676866 9.73136213,21.2676866 C7.43004159,21.2676866 5.82912296,19.5101391 5.82912296,16.7984945 C5.82912296,14.1370655 7.38001288,12.2790868 9.73136213,12.2790868 C12.0326827,12.2790868 13.6336013,13.9362029 13.6336013,16.7984945 L13.6336013,16.7984945 Z" id="SVGID_1_-Copy"></path>
                </g>
            </g>
        </g>
    </g>
</svg>