<?xml version="1.0" encoding="UTF-8" standalone="no"?>
<svg width="115px" height="115px" viewBox="0 0 115 115" version="1.1" xmlns="http://www.w3.org/2000/svg" xmlns:xlink="http://www.w3.org/1999/xlink" xmlns:sketch="http://www.bohemiancoding.com/sketch/ns">
    <!-- Generator: Sketch 3.3.2 (12043) - http://www.bohemiancoding.com/sketch -->
    <title>finalowy copy 14</title>
    <desc>Created with Sketch.</desc>
    <defs></defs>
    <g id="Page-1" stroke="none" stroke-width="1" fill="none" fill-rule="evenodd" sketch:type="MSPage">
        <g id="finalowy-copy-14" sketch:type="MSArtboardGroup" transform="translate(-813.000000, -476.000000)">
            <g id="Rectangle-214-Copy-2-+-SVGID_1_-Copy" sketch:type="MSLayerGroup" transform="translate(813.000000, 476.000000)">
                <rect id="Rectangle-214-Copy-2" fill="#000000" sketch:type="MSShapeGroup" x="0" y="0" width="115" height="115"></rect>
                <path d="M82.2511903,86.4329111 C83.4240339,86.4329111 84.3223821,85.5820334 84.3223821,84.430846 C84.3223821,83.2546327 83.4240339,82.4287808 82.2511903,82.4287808 C81.0783468,82.4287808 80.2049526,83.2796585 80.2049526,84.430846 C80.2049526,85.5820334 81.1033009,86.4329111 82.2511903,86.4329111 L82.2511903,86.4329111 Z M84.1227492,87.1336339 L80.4544938,87.1336339 L80.4544938,98.6204825 C80.4544938,99.3462311 80.080182,99.8467474 79.0071549,99.8467474 C78.7576138,99.8467474 78.4831185,99.7966958 78.4831185,99.7966958 L78.4831185,102.924923 C78.4831185,102.924923 78.9073385,103 79.3066044,103 C82.0765115,103 84.1477033,101.92389 84.1477033,98.7956632 L84.1477033,87.1336339 L84.1227492,87.1336339 Z M73.7917442,89.8364218 C74.9396337,89.8364218 75.6133949,90.6372478 75.6633031,91.563203 L71.9201854,91.563203 C72.0200018,90.7373511 72.5939465,89.8364218 73.7917442,89.8364218 L73.7917442,89.8364218 Z M79.4064208,93.1648551 C79.4064208,89.2107764 77.4100914,86.8333241 73.741836,86.8333241 C70.3480759,86.8333241 68.0772511,89.5611378 68.0772511,92.9646486 C68.0772511,96.3931851 70.3979841,99.0208956 74.2159642,99.0208956 C77.2104584,99.0208956 78.7825679,97.1439595 79.1069714,96.4682625 L76.6864219,94.5913265 C76.4618349,94.9166621 75.6633031,95.8175914 74.2658725,95.8175914 C72.893396,95.8175914 71.9201854,94.9416879 71.8203689,93.8906037 L79.3814667,93.8906037 C79.4064208,93.6153197 79.4064208,93.3900874 79.4064208,93.1648551 Z M65.307344,86.4329111 C66.4801876,86.4329111 67.3785358,85.5820334 67.3785358,84.430846 C67.3785358,83.2546327 66.4801876,82.4287808 65.307344,82.4287808 C64.1345005,82.4287808 63.2611063,83.2796585 63.2611063,84.430846 C63.2611063,85.5820334 64.1594546,86.4329111 65.307344,86.4329111 L65.307344,86.4329111 Z M67.1789029,87.1336339 L63.5106475,87.1336339 L63.5106475,98.7456116 L67.1789029,98.7456116 L67.1789029,87.1336339 L67.1789029,87.1336339 Z M59.3183556,95.7675397 C57.6214756,95.7675397 56.4735861,94.6163523 56.4735861,92.9145969 C56.4735861,91.3629965 57.4467968,90.1617574 59.1686309,90.1617574 C60.0170709,90.1617574 60.8405568,90.487093 61.4644098,91.0126351 L62.4625745,87.8844083 C61.6390886,87.3088146 60.5161533,86.8333241 59.0438603,86.8333241 C55.4754214,86.8333241 52.8053308,89.3859571 52.8053308,92.9396227 C52.8053308,96.4932883 55.4005591,99.0208956 59.0688144,99.0208956 C60.5161533,99.0208956 61.6889969,98.5203793 62.4625745,97.9698114 L61.4893639,94.9416879 C60.9902816,95.3921525 60.1667956,95.7675397 59.3183556,95.7675397 L59.3183556,95.7675397 Z M47.58992,99.0208956 C50.2350566,99.0208956 52.3062484,97.5693983 52.3062484,95.191946 C52.3062484,90.9876092 46.9910212,91.8384869 46.9910212,90.3619639 C46.9910212,90.0116025 47.2904706,89.7863702 47.8145071,89.7863702 C48.7128554,89.7863702 49.3866166,90.3369381 49.7359742,90.6872995 L52.1066154,88.8103634 C51.4328543,87.8844083 50.1601942,86.8082983 47.9642318,86.8082983 C45.46882,86.8082983 43.5223988,88.1596922 43.5223988,90.3869897 C43.5223988,94.6163523 48.7877177,94.0407586 48.7877177,95.3671267 C48.7877177,95.7925655 48.4633142,96.0177979 47.7645989,96.0177979 C46.5917553,96.0177979 45.8181776,95.5423074 45.2192788,94.9917395 L43.148087,96.9938046 C43.8218482,97.9698114 45.3939576,99.0208956 47.58992,99.0208956 L47.58992,99.0208956 Z M34.0398338,92.9646486 C34.0398338,91.2628932 35.1128609,90.0866799 36.6350621,90.0866799 C38.1323092,90.0866799 39.3051528,91.2128416 39.3051528,92.9145969 C39.3051528,94.5663007 38.1572633,95.7675397 36.6350621,95.7675397 C35.137815,95.7675397 34.0398338,94.6413781 34.0398338,92.9646486 L34.0398338,92.9646486 Z M36.6350621,99.0208956 C40.2783634,99.0208956 42.9734082,96.4182109 42.9734082,92.9145969 C42.9734082,89.410983 40.3532257,86.8333241 36.6350621,86.8333241 C33.0666232,86.8333241 30.3715784,89.4360088 30.3715784,92.9646486 C30.3715784,96.4682625 32.9668067,99.0208956 36.6350621,99.0208956 L36.6350621,99.0208956 Z M30.1220372,86.8333241 C28.6996525,86.8333241 27.6266254,87.5340469 27.0776348,88.6602085 L27.0776348,87.1086081 L23.4842418,87.1086081 L23.4842418,98.7205858 L27.1524972,98.7205858 L27.1524972,93.6153197 C27.1524972,91.8635127 27.751396,90.5621704 29.5231384,90.5621704 C29.7976337,90.5621704 29.9723125,90.5871962 30.1220372,90.612222 L30.1220372,86.8333241 L30.1220372,86.8333241 Z M14.0016768,87.1336339 L10.5829626,87.1336339 L10.5829626,102.874871 L14.251218,102.874871 L14.251218,97.8446823 C14.5007592,98.1199663 15.5737863,99.0208956 17.3205746,99.0208956 C20.6644264,99.0208956 22.7605724,96.5183142 22.7605724,92.9145969 C22.7605724,89.3609313 20.4398394,86.8333241 17.1209416,86.8333241 C15.4240616,86.8333241 14.3260804,87.659176 14.0016768,88.0345632 L14.0016768,87.1336339 L14.0016768,87.1336339 Z M14.1514016,92.9145969 C14.1514016,91.3629965 15.0497498,90.0866799 16.6468134,90.0866799 C18.1191064,90.0866799 19.1422252,91.1878158 19.1422252,92.9145969 C19.1422252,94.6163523 18.1440605,95.7925655 16.6468134,95.7925655 C15.1745204,95.7675397 14.1514016,94.7414814 14.1514016,92.9145969 Z M47.58992,75.546682 C48.4882683,75.546682 49.0123048,76.1723273 49.062213,76.8980759 L46.1425812,76.8980759 C46.1924894,76.2474047 46.6416635,75.546682 47.58992,75.546682 Z M51.9818449,78.7249603 C52.006799,78.5247538 52.006799,78.3245473 52.006799,78.1493666 C52.006799,75.0461657 50.4346895,73.1942554 47.5649659,73.1942554 C44.9198294,73.1942554 43.1231329,75.3214496 43.1231329,77.9992117 C43.1231329,80.5017931 44.6702882,82.4287808 47.2655165,82.7040648 C46.7913883,83.0294004 46.2673518,83.6300199 46.2673518,84.4558718 C46.2673518,85.6571108 47.2405624,86.1576271 48.2387271,86.1576271 C48.7877177,86.1576271 49.261846,86.0825497 49.3866166,86.0074722 L49.3866166,84.1055104 C49.0871671,84.1055104 48.6130389,83.9553555 48.6130389,83.4548392 C48.6130389,82.8542197 49.261846,82.5789357 49.4115707,82.5038583 C50.7840472,82.0784194 51.5576248,81.1274385 51.7572578,80.7270255 L49.8607448,79.2505024 C49.686066,79.5007606 49.062213,80.2265092 47.9642318,80.2265092 C46.8912047,80.2265092 46.1176271,79.5257864 46.0427647,78.7249603 L51.9818449,78.7249603 L51.9818449,78.7249603 Z M40.8523081,72.8689198 C41.7756105,72.8689198 42.4743258,72.2182487 42.4743258,71.3173194 C42.4743258,70.3913643 41.7756105,69.7406931 40.8523081,69.7406931 C39.9290057,69.7406931 39.2552445,70.3913643 39.2552445,71.3173194 C39.2552445,72.2182487 39.9539598,72.8689198 40.8523081,72.8689198 L40.8523081,72.8689198 Z M42.3246011,73.4194878 L39.4548775,73.4194878 L39.4548775,82.5038583 L42.3246011,82.5038583 L42.3246011,73.4194878 L42.3246011,73.4194878 Z M35.137815,82.7541164 C37.2090068,82.7541164 38.8310245,81.602929 38.8310245,79.7510187 C38.8310245,76.4726371 34.6636868,77.1233082 34.6636868,75.9721208 C34.6636868,75.6968368 34.913228,75.5216561 35.3124938,75.5216561 C36.0112092,75.5216561 36.5352456,75.947095 36.8097409,76.2223789 L38.6563457,74.7458559 C38.1323092,74.0201073 37.1341445,73.1942554 35.4123103,73.1942554 C33.440935,73.1942554 31.9436879,74.2453396 31.9436879,75.9971466 C31.9436879,79.3005541 36.0860715,78.8500894 36.0860715,79.9011736 C36.0860715,80.2265092 35.8365303,80.4016899 35.2875397,80.4016899 C34.3642374,80.4016899 33.7653385,80.0263027 33.2912103,79.6008638 L31.6691926,81.1774901 C32.1932291,81.9032387 33.4159809,82.7541164 35.137815,82.7541164 L35.137815,82.7541164 Z M23.7088289,79.6008638 C23.7088289,79.0002443 24.2328653,78.6248571 24.9066265,78.6248571 C25.6053418,78.6248571 26.1293783,78.9752185 26.1293783,79.6008638 C26.1293783,80.2014834 25.6053418,80.526819 24.9315806,80.526819 C24.2578195,80.526819 23.7088289,80.2014834 23.7088289,79.6008638 L23.7088289,79.6008638 Z M20.8391052,79.7009671 C20.8391052,81.6780064 22.4112147,82.7541164 24.1829571,82.7541164 C25.1062595,82.7541164 25.7550665,82.5038583 26.2291948,82.0283678 L26.3789195,82.5288841 L28.9491937,82.5288841 L28.9491937,76.8980759 C28.9491937,74.8209333 28.1506619,73.2192812 25.0313971,73.2192812 C23.53415,73.2192812 22.3113982,73.6947717 21.3381876,74.3454429 L22.4112147,76.2724306 C23.10993,75.9220692 23.8835077,75.6968368 24.6820395,75.6968368 C25.6053418,75.6968368 26.054516,76.1222757 26.054516,76.6728436 L26.054516,76.9981792 C25.7301124,76.8480243 25.1062595,76.6728436 24.3077277,76.6728436 C22.2115818,76.6728436 20.8391052,77.8740827 20.8391052,79.7009671 L20.8391052,79.7009671 Z M17.4453452,82.5288841 L20.1403899,82.5288841 L20.1403899,69.9909512 L17.2706663,69.9909512 L17.2706663,74.1202105 C17.0710334,73.8949782 16.2475475,73.1942554 14.8501169,73.1942554 C12.2299344,73.1942554 10.5829626,75.1712947 10.5829626,77.9741859 C10.5829626,80.7520513 12.4046133,82.7290906 14.9998416,82.7290906 C16.3224098,82.7290906 17.195804,82.0784194 17.4453452,81.8031355 L17.4453452,82.5288841 L17.4453452,82.5288841 Z M17.3455287,77.9992117 C17.3455287,79.2004508 16.6468134,80.2265092 15.3991075,80.2265092 C14.251218,80.2265092 13.4526862,79.3506057 13.4526862,77.9992117 C13.4526862,76.6728436 14.2262639,75.7468885 15.3991075,75.7468885 C16.5469969,75.7468885 17.3455287,76.5727403 17.3455287,77.9992117 L17.3455287,77.9992117 Z" id="SVGID_1_-Copy" fill="#FFFFFF" sketch:type="MSShapeGroup"></path>
            </g>
        </g>
    </g>
</svg>