<?xml version="1.0" encoding="utf-8"?>
<!-- Generator: Adobe Illustrator 18.0.0, SVG Export Plug-In . SVG Version: 6.00 Build 0)  -->
<!DOCTYPE svg PUBLIC "-//W3C//DTD SVG 1.1//EN" "http://www.w3.org/Graphics/SVG/1.1/DTD/svg11.dtd">
<svg version="1.1" id="Layer_1" xmlns="http://www.w3.org/2000/svg" xmlns:xlink="http://www.w3.org/1999/xlink" x="0px" y="0px"
	 viewBox="0 0 57.4 62.9" enable-background="new 0 0 57.4 62.9" xml:space="preserve">
<path fill="#0B1E63" d="M57.3,53.1l-4.7-25.4c-0.4-2.2-2.5-3.6-4.7-3.2c-2.2,0.4-3.6,2.5-3.2,4.7l3,16.3C14.2,27.8,9.1,4.7,8.9,3.7
	c-0.5-2.4-2.8-4-5.2-3.6C1.2,0.5-0.4,2.9,0.1,5.3c0.2,1.2,5.5,27.2,41.2,46.9c-7.1,1.4-13,2.6-14.2,2.7c-2.2,0.1-3.9,1.8-3.9,4
	c0,2.2,1.8,4,4,4c1.9,0,15.7-2.8,26.9-5.2C56.3,57.3,57.7,55.3,57.3,53.1z"/>
</svg>
