<?xml version="1.0" encoding="UTF-8" standalone="no"?>
<svg width="2001px" height="150px" viewBox="0 0 2001 150" version="1.1" xmlns="http://www.w3.org/2000/svg" xmlns:xlink="http://www.w3.org/1999/xlink" xmlns:sketch="http://www.bohemiancoding.com/sketch/ns">
    <!-- Generator: Sketch 3.3.2 (12043) - http://www.bohemiancoding.com/sketch -->
    <title>Slice 1</title>
    <desc>Created with Sketch.</desc>
    <defs></defs>
    <g id="Page-1" stroke="none" stroke-width="1" fill="none" fill-rule="evenodd" sketch:type="MSPage">
        <g id="dsp_long" sketch:type="MSLayerGroup" fill="#FFFFFF">
            <g id="Group" sketch:type="MSShapeGroup">
                <path d="M1580.8,149.4 C1580.8,127.5 1594.7,110.2 1619.5,110.2 C1631.8,110.2 1643.4,114.9 1652.6,122.5 L1666.7,78.2 C1655,70 1639.1,63 1617.7,63 C1566.9,63 1528.7,99.1 1528.5,149.4 L1580.8,149.4 L1580.8,149.4 Z" id="Shape"></path>
                <path d="M1501.9,4.2 L1447.5,4.2 L1426.8,49.8 L1470.5,49.8 L1501.9,4.2 Z" id="Shape"></path>
                <path d="M1924.2,149.4 C1923,95.3 1894.5,63 1843.1,63 C1795,63 1762.4,101.4 1762.1,149.4 L1924.2,149.4 L1924.2,149.4 Z M1844,105.4 C1860.4,105.4 1870.1,116.8 1870.8,130 L1817.3,130 C1818.6,118.3 1826.8,105.4 1844,105.4 L1844,105.4 Z" id="Shape"></path>
                <rect id="Rectangle-path" x="574.8" y="67.1" width="52.5" height="82.3"></rect>
                <rect id="Rectangle-path" x="1687.4" y="67.1" width="52.5" height="82.3"></rect>
                <path d="M1971.1,57.1 C1987.8,57.1 2000.7,45.1 2000.7,28.8 C2000.7,12.1 1987.8,0.2 1971.1,0.2 C1954.5,0.2 1941.8,12.1 1941.8,28.8 C1941.8,45 1954.5,57.1 1971.1,57.1 L1971.1,57.1 Z" id="Shape"></path>
                <rect id="Rectangle-path" x="1945.3" y="67.1" width="52.5" height="82.3"></rect>
                <path d="M1713.2,57.1 C1729.9,57.1 1742.8,45.1 1742.8,28.8 C1742.8,12.1 1729.9,0.2 1713.2,0.2 C1696.6,0.2 1684,12.1 1684,28.8 C1684,45 1696.6,57.1 1713.2,57.1 L1713.2,57.1 Z" id="Shape"></path>
                <path d="M1405.2,149.4 L1505.9,149.4 C1484.6,126.1 1441.3,129 1441.3,113.4 C1441.3,108.4 1445.7,105.2 1453.2,105.2 C1466.1,105.2 1475.6,113.1 1480.6,118.1 L1514.6,91.4 C1504.9,78.2 1486.9,63 1455.5,63 C1419.6,63 1391.9,82.2 1391.9,114 C1391.8,130 1397.2,141.2 1405.2,149.4 L1405.2,149.4 Z" id="Shape"></path>
                <path d="M443.2,149.4 L543.9,149.4 C522.6,126.1 479.3,129 479.3,113.4 C479.3,108.4 483.7,105.2 491.3,105.2 C504.2,105.2 513.6,113.1 518.6,118.1 L552.6,91.4 C542.9,78.2 525,63 493.5,63 C457.7,63 429.9,82.2 429.9,114 C429.8,130 435.2,141.2 443.2,149.4 L443.2,149.4 Z" id="Shape"></path>
                <path d="M267.6,108.3 C284.5,108.3 292.7,116.2 292.7,126.2 L292.7,132.2 C286.7,129.7 275.4,126.2 260.9,126.2 C236.4,126.2 217.4,134.8 206.6,149.4 L345.2,149.4 L345.2,130 C345.2,92.2 330.7,62.9 273.8,62.9 C246.5,62.9 224.1,71.7 206.5,83.4 L226.1,118.6 C239,112.3 253.1,108.3 267.6,108.3 L267.6,108.3 Z" id="Shape"></path>
                <path d="M1,149.4 L53.4,149.4 C53.7,125.6 67.8,109.3 88.9,109.3 C109.4,109.3 124.2,123.8 124.5,149.4 L175.4,149.4 L175.4,4.8 L122.9,4.8 L122.9,79.6 C119.4,75.6 104.1,62.9 78.9,62.9 C31.2,62.9 0.9,98.5 0.9,149.7 C0.9,151.4 0.9,153 1,154.6 L1,149.4 L1,149.4 Z" id="Shape"></path>
                <path d="M600.6,57.1 C617.3,57.1 630.2,45.1 630.2,28.8 C630.2,12.1 617.3,0.2 600.6,0.2 C584,0.2 571.4,12.1 571.4,28.8 C571.4,45 584,57.1 600.6,57.1 L600.6,57.1 Z" id="Shape"></path>
                <path d="M1143.9,149.4 C1146,129.7 1155.3,115.9 1177.4,115.9 C1181.1,115.9 1183.6,116.2 1185.8,116.6 L1185.8,63 C1165.4,63 1150,73.2 1142.1,89.1 L1142.1,67.1 L1090.9,67.1 L1090.9,149.4 L1143.9,149.4 L1143.9,149.4 Z" id="Shape"></path>
                <path d="M811.5,149.4 C810.3,95.3 781.8,63 730.4,63 C682.3,63 649.7,101.4 649.4,149.4 L811.5,149.4 L811.5,149.4 Z M731.4,105.4 C747.8,105.4 757.5,116.8 758.2,130 L704.7,130 C706,118.3 714.2,105.4 731.4,105.4 L731.4,105.4 Z" id="Shape"></path>
                <path d="M1247.8,149.4 C1248.1,125.6 1263.5,109.3 1284.9,109.3 C1306.3,109.3 1323,125.3 1323,149.4 L1375.4,149.4 C1375.3,99.4 1338,63 1284.9,63 C1234.3,63 1195.7,99.8 1195.3,149.4 L1247.8,149.4 L1247.8,149.4 Z" id="Shape"></path>
                <path d="M945.3,149.4 L945.3,149.2 C945.3,127.2 958.2,109 980.8,109 C1001.9,109 1016.4,124.7 1016.4,149.2 L1016.4,149.4 L1068.9,149.4 C1068.9,98.9 1035.6,63 988.1,63 C964,63 948.2,74.7 943.5,80 L943.4,67.1 L894.4,67.1 L894.4,149.4 L945.3,149.4 L945.3,149.4 Z" id="Shape"></path>
            </g>
        </g>
    </g>
</svg>