<?xml version="1.0" encoding="UTF-8" standalone="no"?>
<svg width="1831px" height="135px" viewBox="0 0 1831 135" version="1.1" xmlns="http://www.w3.org/2000/svg" xmlns:xlink="http://www.w3.org/1999/xlink" xmlns:sketch="http://www.bohemiancoding.com/sketch/ns">
    <!-- Generator: Sketch 3.3.2 (12043) - http://www.bohemiancoding.com/sketch -->
    <title>finalowy copy 15</title>
    <desc>Created with Sketch.</desc>
    <defs>
        <rect id="path-1" x="0" y="0" width="2525" height="191"></rect>
    </defs>
    <g id="Page-1" stroke="none" stroke-width="1" fill="none" fill-rule="evenodd" sketch:type="MSPage">
        <g id="finalowy-copy-15" sketch:type="MSArtboardGroup" transform="translate(-23.000000, -3145.000000)">
            <g id="Rectangle-90-+-da-się-prościej-Copy" sketch:type="MSLayerGroup" transform="translate(-339.000000, 3090.000000)">
                <mask id="mask-2" sketch:name="Mask" fill="white">
                    <use xlink:href="#path-1"></use>
                </mask>
                <use id="Mask" sketch:type="MSShapeGroup" xlink:href="#path-1"></use>
                <path d="M475.06569,193.094788 C475.06569,213.247787 463.261791,229.945987 442.532991,229.945987 C423.243692,229.945987 410.000292,215.550987 410.000292,193.094788 C410.000292,170.926488 422.955792,155.667788 442.532991,155.667788 C461.534391,155.667788 475.06569,169.199088 475.06569,193.094788 L475.06569,193.094788 Z M476.79309,268.236686 L521.705489,268.236686 L521.705489,60.0849905 L473.62619,60.0849905 L473.62619,128.605189 C470.459291,124.862489 456.352191,113.346489 433.320191,113.346489 C389.559392,113.346489 361.920993,145.879189 361.920993,192.806888 C361.920993,239.158787 392.438392,271.979386 435.911291,271.979386 C458.079591,271.979386 472.474591,261.327086 476.79309,256.432786 L476.79309,268.236686 Z M541.282689,221.308987 C541.282689,254.129586 567.769488,271.979386 597.423188,271.979386 C612.969788,271.979386 623.909987,267.660886 631.683287,259.887586 L634.274387,268.236686 L677.171486,268.236686 L677.171486,174.669188 C677.171486,140.121189 663.928086,113.346489 611.818188,113.346489 C586.770888,113.346489 566.329989,121.407689 550.207589,132.059989 L568.057388,164.304788 C579.861288,158.546788 592.816788,154.804088 606.060188,154.804088 C621.606787,154.804088 629.092187,162.001588 629.092187,171.214388 L629.092187,176.684488 C623.622087,174.381288 613.257688,171.214388 600.014288,171.214388 C564.314689,171.214388 541.282689,191.079488 541.282689,221.308987 L541.282689,221.308987 Z M589.361988,219.581587 C589.361988,209.792987 597.998988,203.459187 609.514988,203.459187 C621.030987,203.459187 629.955887,209.217187 629.955887,219.581587 C629.955887,229.658087 621.318887,235.128187 609.802888,235.128187 C598.574788,235.128187 589.361988,229.658087 589.361988,219.581587 L589.361988,219.581587 Z M807.878083,271.979386 C842.426083,271.979386 869.488682,252.977986 869.488682,222.172687 C869.488682,167.471688 799.816884,178.411888 799.816884,159.410488 C799.816884,154.804088 803.847483,151.925089 810.757083,151.925089 C822.560983,151.925089 831.197983,159.122588 835.804383,163.728988 L866.897582,139.257489 C857.972682,127.165689 841.562383,113.346489 812.772383,113.346489 C779.951784,113.346489 754.616585,130.908389 754.616585,159.986288 C754.616585,214.975187 823.712583,207.489787 823.712583,224.763787 C823.712583,230.233887 819.394083,233.112887 810.181283,233.112887 C794.922584,233.112887 784.846084,227.066987 776.784884,219.869487 L749.722285,246.068387 C758.647184,258.160186 779.088084,271.979386 807.878083,271.979386 L807.878083,271.979386 Z M935.417781,117.089189 L887.338482,117.089189 L887.338482,268.236686 L935.417781,268.236686 L935.417781,117.089189 Z M910.946281,107.876389 C926.204981,107.876389 938.008881,96.9361897 938.008881,81.96539 C938.008881,66.7066903 926.204981,55.7664906 910.946281,55.7664906 C895.687582,55.7664906 884.171582,66.7066903 884.171582,81.96539 C884.171582,96.9361897 895.687582,107.876389 910.946281,107.876389 L910.946281,107.876389 Z M1103.83928,205.186587 C1104.12718,201.731787 1104.12718,198.564888 1104.12718,195.685888 C1104.12718,144.151789 1077.92828,113.346489 1029.84898,113.346489 C985.51238,113.346489 955.57078,148.758189 955.57078,193.094788 C955.57078,234.552387 981.48178,266.797186 1024.95468,271.403586 C1017.18138,276.873686 1008.25648,286.662286 1008.25648,300.481485 C1008.25648,320.634485 1024.37888,328.983585 1041.07708,328.983585 C1050.28988,328.983585 1058.06318,327.544085 1060.36638,326.680385 L1060.36638,295.011385 C1055.18418,295.011385 1047.41088,292.420286 1047.41088,284.071186 C1047.41088,273.994686 1058.35108,269.388286 1060.94218,268.236686 C1083.97418,261.039186 1096.64178,245.492587 1100.09658,238.582987 L1068.42758,214.111487 C1065.54858,218.429987 1054.89628,230.233887 1036.75858,230.233887 C1018.90878,230.233887 1005.95328,218.717887 1004.80168,205.186587 L1103.83928,205.186587 Z M1030.71268,152.212989 C1045.68348,152.212989 1054.60838,162.577388 1055.18418,174.669188 L1006.24118,174.669188 C1007.39278,164.016888 1014.87818,152.212989 1030.71268,152.212989 L1030.71268,152.212989 Z M1226.48467,192.231088 C1226.48467,172.078088 1238.28857,155.379888 1259.01737,155.379888 C1278.30667,155.379888 1291.55007,169.774888 1291.55007,192.231088 C1291.55007,214.399387 1278.59457,229.658087 1259.01737,229.658087 C1240.01597,229.658087 1226.48467,216.126787 1226.48467,192.231088 L1226.48467,192.231088 Z M1224.75727,117.089189 L1179.84488,117.089189 L1179.84488,322.073985 L1227.92417,322.073985 L1227.92417,256.720686 C1231.09107,260.463386 1245.19817,271.979386 1268.23017,271.979386 C1311.99097,271.979386 1339.62937,239.446687 1339.62937,192.518988 C1339.62937,146.167089 1309.11197,113.346489 1265.63907,113.346489 C1243.47077,113.346489 1229.07577,123.998789 1224.75727,128.893089 L1224.75727,117.089189 Z M1446.72817,113.346489 C1428.01467,113.346489 1413.90757,122.559289 1406.71007,137.242189 L1406.71007,117.089189 L1359.78237,117.089189 L1359.78237,268.236686 L1407.86167,268.236686 L1407.86167,201.443887 C1407.86167,178.699788 1415.63497,161.713688 1438.95487,161.713688 C1442.40967,161.713688 1444.71287,162.001588 1446.72817,162.289488 L1446.72817,113.346489 Z M1455.36517,193.094788 C1455.36517,238.582987 1489.33737,271.979386 1537.41667,271.979386 C1585.20807,271.979386 1620.33187,238.007187 1620.33187,192.518988 C1620.33187,146.742889 1586.07177,113.346489 1537.41667,113.346489 C1490.77687,113.346489 1455.36517,147.318689 1455.36517,193.094788 L1455.36517,193.094788 Z M1503.44447,193.094788 C1503.44447,170.926488 1517.55157,155.667788 1537.41667,155.667788 C1556.99387,155.667788 1572.25257,170.350688 1572.25257,192.518988 C1572.25257,214.111487 1557.28177,229.658087 1537.41667,229.658087 C1517.83947,229.658087 1503.44447,214.975187 1503.44447,193.094788 L1503.44447,193.094788 Z M1688.56416,271.979386 C1723.11216,271.979386 1750.17476,252.977986 1750.17476,222.172687 C1750.17476,167.471688 1680.50296,178.411888 1680.50296,159.410488 C1680.50296,154.804088 1684.53356,151.925089 1691.44316,151.925089 C1703.24706,151.925089 1711.88406,159.122588 1716.49046,163.728988 L1747.58366,139.257489 C1738.65876,127.165689 1722.24846,113.346489 1693.45846,113.346489 C1660.63787,113.346489 1635.30267,130.908389 1635.30267,159.986288 C1635.30267,214.975187 1704.39866,207.489787 1704.39866,224.763787 C1704.39866,230.233887 1700.08016,233.112887 1690.86736,233.112887 C1675.60867,233.112887 1665.53217,227.066987 1657.47097,219.869487 L1630.40837,246.068387 C1639.33327,258.160186 1659.77417,271.979386 1688.56416,271.979386 L1688.56416,271.979386 Z M1686.26096,59.5091905 L1667.25957,101.25469 L1707.27766,101.25469 L1736.06766,59.5091905 L1686.26096,59.5091905 Z M1845.46966,229.658087 C1823.30136,229.658087 1808.33056,214.687287 1808.33056,192.518988 C1808.33056,172.365988 1820.99816,156.531488 1843.74226,156.531488 C1854.97036,156.531488 1865.62266,160.849988 1873.97176,167.759588 L1886.92726,127.165689 C1876.27496,119.680289 1861.59206,113.346489 1842.01486,113.346489 C1795.37506,113.346489 1760.25126,146.454989 1760.25126,192.806888 C1760.25126,239.158787 1794.22346,271.979386 1842.30276,271.979386 C1861.30416,271.979386 1876.56286,265.357686 1886.63936,258.448086 L1873.97176,219.005787 C1867.35006,224.475887 1856.69776,229.658087 1845.46966,229.658087 L1845.46966,229.658087 Z M1954.00796,117.089189 L1905.92866,117.089189 L1905.92866,268.236686 L1954.00796,268.236686 L1954.00796,117.089189 Z M1929.53646,107.876389 C1944.79516,107.876389 1956.59906,96.9361897 1956.59906,81.96539 C1956.59906,66.7066903 1944.79516,55.7664906 1929.53646,55.7664906 C1914.27776,55.7664906 1902.76176,66.7066903 1902.76176,81.96539 C1902.76176,96.9361897 1914.27776,107.876389 1929.53646,107.876389 L1929.53646,107.876389 Z M2122.42946,205.186587 C2122.71736,201.731787 2122.71736,198.564888 2122.71736,195.685888 C2122.71736,144.151789 2096.51846,113.346489 2048.43916,113.346489 C2004.10256,113.346489 1974.16096,148.758189 1974.16096,193.094788 C1974.16096,237.719287 2004.67836,271.979386 2054.48506,271.979386 C2093.63946,271.979386 2114.36826,247.507886 2118.68676,238.582987 L2087.01776,214.111487 C2084.13876,218.429987 2073.48646,230.233887 2055.34876,230.233887 C2037.49896,230.233887 2024.54346,218.717887 2023.39186,205.186587 L2122.42946,205.186587 Z M2049.30286,152.212989 C2064.27366,152.212989 2073.19856,162.577388 2073.77436,174.669188 L2024.83136,174.669188 C2025.98296,164.016888 2033.46836,152.212989 2049.30286,152.212989 L2049.30286,152.212989 Z M2190.08595,117.089189 L2142.00666,117.089189 L2142.00666,266.509286 C2142.00666,276.009986 2137.11236,282.631686 2123.00526,282.631686 C2119.83836,282.631686 2116.09566,282.055886 2116.09566,282.055886 L2116.09566,322.649785 C2116.09566,322.649785 2121.56576,323.513485 2126.74796,323.513485 C2163.02335,323.513485 2190.08595,309.406385 2190.08595,268.812486 L2190.08595,117.089189 Z M2165.61445,107.876389 C2180.87315,107.876389 2192.67705,96.9361897 2192.67705,81.96539 C2192.67705,66.7066903 2180.87315,55.7664906 2165.61445,55.7664906 C2150.35575,55.7664906 2138.83976,66.7066903 2138.83976,81.96539 C2138.83976,96.9361897 2150.35575,107.876389 2165.61445,107.876389 L2165.61445,107.876389 Z" id="da-się-prościej" fill="#ffffff" sketch:type="MSShapeGroup" mask="url(#mask-2)"></path>
            </g>
        </g>
    </g>
</svg>