<?xml version="1.0" encoding="UTF-8" standalone="no"?>
<svg width="250px" height="38px" viewBox="0 0 250 38" version="1.1" xmlns="http://www.w3.org/2000/svg" xmlns:xlink="http://www.w3.org/1999/xlink" xmlns:sketch="http://www.bohemiancoding.com/sketch/ns">
    <!-- Generator: Sketch 3.3.2 (12043) - http://www.bohemiancoding.com/sketch -->
    <title>Artboard 1 Copy 5</title>
    <desc>Created with Sketch.</desc>
    <defs></defs>
    <g id="Page-1" stroke="none" stroke-width="1" fill="none" fill-rule="evenodd" sketch:type="MSPage">
        <g id="Artboard-1-Copy-5" sketch:type="MSArtboardGroup" transform="translate(-676.000000, -3291.000000)" fill="#111111">
            <path d="M692.185,3309.821 C692.185,3312.551 690.586,3314.813 687.778,3314.813 C685.165,3314.813 683.371,3312.863 683.371,3309.821 C683.371,3306.818 685.126,3304.751 687.778,3304.751 C690.352,3304.751 692.185,3306.584 692.185,3309.821 L692.185,3309.821 Z M692.419,3320 L698.503,3320 L698.503,3291.803 L691.99,3291.803 L691.99,3301.085 C691.561,3300.578 689.65,3299.018 686.53,3299.018 C680.602,3299.018 676.858,3303.425 676.858,3309.782 C676.858,3316.061 680.992,3320.507 686.881,3320.507 C689.884,3320.507 691.834,3319.064 692.419,3318.401 L692.419,3320 Z M701.155,3313.643 C701.155,3318.089 704.743,3320.507 708.76,3320.507 C710.866,3320.507 712.348,3319.922 713.401,3318.869 L713.752,3320 L719.563,3320 L719.563,3307.325 C719.563,3302.645 717.769,3299.018 710.71,3299.018 C707.317,3299.018 704.548,3300.11 702.364,3301.553 L704.782,3305.921 C706.381,3305.141 708.136,3304.634 709.93,3304.634 C712.036,3304.634 713.05,3305.609 713.05,3306.857 L713.05,3307.598 C712.309,3307.286 710.905,3306.857 709.111,3306.857 C704.275,3306.857 701.155,3309.548 701.155,3313.643 L701.155,3313.643 Z M707.668,3313.409 C707.668,3312.083 708.838,3311.225 710.398,3311.225 C711.958,3311.225 713.167,3312.005 713.167,3313.409 C713.167,3314.774 711.997,3315.515 710.437,3315.515 C708.916,3315.515 707.668,3314.774 707.668,3313.409 L707.668,3313.409 Z M737.269,3320.507 C741.949,3320.507 745.615,3317.933 745.615,3313.76 C745.615,3306.35 736.177,3307.832 736.177,3305.258 C736.177,3304.634 736.723,3304.244 737.659,3304.244 C739.258,3304.244 740.428,3305.219 741.052,3305.843 L745.264,3302.528 C744.055,3300.89 741.832,3299.018 737.932,3299.018 C733.486,3299.018 730.054,3301.397 730.054,3305.336 C730.054,3312.785 739.414,3311.771 739.414,3314.111 C739.414,3314.852 738.829,3315.242 737.581,3315.242 C735.514,3315.242 734.149,3314.423 733.057,3313.448 L729.391,3316.997 C730.6,3318.635 733.369,3320.507 737.269,3320.507 L737.269,3320.507 Z M754.546,3299.525 L748.033,3299.525 L748.033,3320 L754.546,3320 L754.546,3299.525 Z M751.231,3298.277 C753.298,3298.277 754.897,3296.795 754.897,3294.767 C754.897,3292.7 753.298,3291.218 751.231,3291.218 C749.164,3291.218 747.604,3292.7 747.604,3294.767 C747.604,3296.795 749.164,3298.277 751.231,3298.277 L751.231,3298.277 Z M777.361,3311.459 C777.4,3310.991 777.4,3310.562 777.4,3310.172 C777.4,3303.191 773.851,3299.018 767.338,3299.018 C761.332,3299.018 757.276,3303.815 757.276,3309.821 C757.276,3315.437 760.786,3319.805 766.675,3320.429 C765.622,3321.17 764.413,3322.496 764.413,3324.368 C764.413,3327.098 766.597,3328.229 768.859,3328.229 C770.107,3328.229 771.16,3328.034 771.472,3327.917 L771.472,3323.627 C770.77,3323.627 769.717,3323.276 769.717,3322.145 C769.717,3320.78 771.199,3320.156 771.55,3320 C774.67,3319.025 776.386,3316.919 776.854,3315.983 L772.564,3312.668 C772.174,3313.253 770.731,3314.852 768.274,3314.852 C765.856,3314.852 764.101,3313.292 763.945,3311.459 L777.361,3311.459 Z M767.455,3304.283 C769.483,3304.283 770.692,3305.687 770.77,3307.325 L764.14,3307.325 C764.296,3305.882 765.31,3304.283 767.455,3304.283 L767.455,3304.283 Z M793.975,3309.704 C793.975,3306.974 795.574,3304.712 798.382,3304.712 C800.995,3304.712 802.789,3306.662 802.789,3309.704 C802.789,3312.707 801.034,3314.774 798.382,3314.774 C795.808,3314.774 793.975,3312.941 793.975,3309.704 L793.975,3309.704 Z M793.741,3299.525 L787.657,3299.525 L787.657,3327.293 L794.17,3327.293 L794.17,3318.44 C794.599,3318.947 796.51,3320.507 799.63,3320.507 C805.558,3320.507 809.302,3316.1 809.302,3309.743 C809.302,3303.464 805.168,3299.018 799.279,3299.018 C796.276,3299.018 794.326,3300.461 793.741,3301.124 L793.741,3299.525 Z M823.81,3299.018 C821.275,3299.018 819.364,3300.266 818.389,3302.255 L818.389,3299.525 L812.032,3299.525 L812.032,3320 L818.545,3320 L818.545,3310.952 C818.545,3307.871 819.598,3305.57 822.757,3305.57 C823.225,3305.57 823.537,3305.609 823.81,3305.648 L823.81,3299.018 Z M825.37,3309.821 C825.37,3315.983 829.972,3320.507 836.485,3320.507 C842.959,3320.507 847.717,3315.905 847.717,3309.743 C847.717,3303.542 843.076,3299.018 836.485,3299.018 C830.167,3299.018 825.37,3303.62 825.37,3309.821 L825.37,3309.821 Z M831.883,3309.821 C831.883,3306.818 833.794,3304.751 836.485,3304.751 C839.137,3304.751 841.204,3306.74 841.204,3309.743 C841.204,3312.668 839.176,3314.774 836.485,3314.774 C833.833,3314.774 831.883,3312.785 831.883,3309.821 L831.883,3309.821 Z M856.96,3320.507 C861.64,3320.507 865.306,3317.933 865.306,3313.76 C865.306,3306.35 855.868,3307.832 855.868,3305.258 C855.868,3304.634 856.414,3304.244 857.35,3304.244 C858.949,3304.244 860.119,3305.219 860.743,3305.843 L864.955,3302.528 C863.746,3300.89 861.523,3299.018 857.623,3299.018 C853.177,3299.018 849.745,3301.397 849.745,3305.336 C849.745,3312.785 859.105,3311.771 859.105,3314.111 C859.105,3314.852 858.52,3315.242 857.272,3315.242 C855.205,3315.242 853.84,3314.423 852.748,3313.448 L849.082,3316.997 C850.291,3318.635 853.06,3320.507 856.96,3320.507 L856.96,3320.507 Z M856.648,3291.725 L854.074,3297.38 L859.495,3297.38 L863.395,3291.725 L856.648,3291.725 Z M878.215,3314.774 C875.212,3314.774 873.184,3312.746 873.184,3309.743 C873.184,3307.013 874.9,3304.868 877.981,3304.868 C879.502,3304.868 880.945,3305.453 882.076,3306.389 L883.831,3300.89 C882.388,3299.876 880.399,3299.018 877.747,3299.018 C871.429,3299.018 866.671,3303.503 866.671,3309.782 C866.671,3316.061 871.273,3320.507 877.786,3320.507 C880.36,3320.507 882.427,3319.61 883.792,3318.674 L882.076,3313.331 C881.179,3314.072 879.736,3314.774 878.215,3314.774 L878.215,3314.774 Z M892.918,3299.525 L886.405,3299.525 L886.405,3320 L892.918,3320 L892.918,3299.525 Z M889.603,3298.277 C891.67,3298.277 893.269,3296.795 893.269,3294.767 C893.269,3292.7 891.67,3291.218 889.603,3291.218 C887.536,3291.218 885.976,3292.7 885.976,3294.767 C885.976,3296.795 887.536,3298.277 889.603,3298.277 L889.603,3298.277 Z M915.733,3311.459 C915.772,3310.991 915.772,3310.562 915.772,3310.172 C915.772,3303.191 912.223,3299.018 905.71,3299.018 C899.704,3299.018 895.648,3303.815 895.648,3309.821 C895.648,3315.866 899.782,3320.507 906.529,3320.507 C911.833,3320.507 914.641,3317.192 915.226,3315.983 L910.936,3312.668 C910.546,3313.253 909.103,3314.852 906.646,3314.852 C904.228,3314.852 902.473,3313.292 902.317,3311.459 L915.733,3311.459 Z M905.827,3304.283 C907.855,3304.283 909.064,3305.687 909.142,3307.325 L902.512,3307.325 C902.668,3305.882 903.682,3304.283 905.827,3304.283 L905.827,3304.283 Z M924.898,3299.525 L918.385,3299.525 L918.385,3319.766 C918.385,3321.053 917.722,3321.95 915.811,3321.95 C915.382,3321.95 914.875,3321.872 914.875,3321.872 L914.875,3327.371 C914.875,3327.371 915.616,3327.488 916.318,3327.488 C921.232,3327.488 924.898,3325.577 924.898,3320.078 L924.898,3299.525 Z M921.583,3298.277 C923.65,3298.277 925.249,3296.795 925.249,3294.767 C925.249,3292.7 923.65,3291.218 921.583,3291.218 C919.516,3291.218 917.956,3292.7 917.956,3294.767 C917.956,3296.795 919.516,3298.277 921.583,3298.277 L921.583,3298.277 Z" id="da-się-prościej-copy" sketch:type="MSShapeGroup"></path>
        </g>
    </g>
</svg>