<?xml version="1.0" encoding="UTF-8" standalone="no"?>
<svg width="51px" height="43px" viewBox="0 0 51 43" version="1.1" xmlns="http://www.w3.org/2000/svg" xmlns:xlink="http://www.w3.org/1999/xlink" xmlns:sketch="http://www.bohemiancoding.com/sketch/ns">
    <!-- Generator: Sketch 3.3.2 (12043) - http://www.bohemiancoding.com/sketch -->
    <title>Slice 1</title>
    <desc>Created with Sketch.</desc>
    <defs></defs>
    <g id="Page-1" stroke="none" stroke-width="1" fill="none" fill-rule="evenodd" sketch:type="MSPage">
        <path d="M38.7169621,42.6930006 C34.802872,42.6930006 31.9685733,41.3433346 30.2139812,38.6439621 C28.4593891,35.9445896 27.5821062,32.8403578 27.5821062,29.3311735 C27.5821062,27.3066441 27.8520394,25.0796952 28.3919139,22.6502599 C28.9317884,20.2208247 29.9777795,17.7576842 31.5299187,15.2607646 C33.0820579,12.7638451 35.2752652,10.2669629 38.1096063,7.77004337 C40.9439474,5.2731238 44.7230123,2.87746663 49.4469142,0.583 L50.6616257,2.40506733 C47.9622532,4.96947122 45.8365292,7.19642014 44.2843901,9.08598089 C42.7322509,10.9755416 41.5512931,12.7301075 40.7414814,14.349731 C39.9316696,15.9693545 39.4255448,17.4539871 39.2230919,18.8036733 C39.020639,20.1533596 38.919414,21.5705089 38.919414,23.0551638 C38.919414,24.1349128 39.2568305,24.9109707 39.9316736,25.3833609 C40.6065168,25.8557511 41.3488331,26.4293592 42.1586448,27.1042023 C43.3733625,27.9140141 44.4868369,28.690072 45.4991016,29.4323995 C46.5113663,30.1747269 47.0174911,31.6931012 47.0174911,33.9875678 C47.0174911,36.4170031 46.2076915,38.4752437 44.5880679,40.1623515 C42.9684444,41.8494594 41.0114287,42.6930006 38.7169621,42.6930006 L38.7169621,42.6930006 Z M11.9933079,42.6930006 C8.07921772,42.6930006 5.21117745,41.3433346 3.389101,38.6439621 C1.56702456,35.9445896 0.656,32.8403578 0.656,29.3311735 C0.656,27.3066441 0.925933202,25.1134368 1.4658077,22.7514859 C2.00568221,20.389535 3.08541501,17.9263945 4.70503852,15.3619906 C6.32466203,12.7975867 8.55161094,10.2669629 11.3859521,7.77004337 C14.2202932,5.2731238 17.999358,2.87746663 22.7232599,0.583 L23.9379715,2.40506733 C21.238599,4.96947122 19.112875,7.19642014 17.5607358,9.08598089 C16.0085966,10.9755416 14.8276389,12.7301075 14.0178271,14.349731 C13.2080154,15.9693545 12.7018906,17.4539871 12.4994377,18.8036733 C12.2969847,20.1533596 12.1957598,21.5705089 12.1957598,23.0551638 C12.1957598,24.1349128 12.4994346,24.9447124 13.1067934,25.4845869 C13.7141523,26.0244614 14.4227269,26.4968445 15.2325387,26.9017504 C16.3122877,27.5765935 17.4257621,28.3526515 18.5729955,29.2299475 C19.7202288,30.1072436 20.2938368,31.6931012 20.2938368,33.9875678 C20.2938368,36.4170031 19.5177789,38.4752437 17.9656397,40.1623515 C16.4135005,41.8494594 14.4227431,42.6930006 11.9933079,42.6930006 L11.9933079,42.6930006 Z" id="“-copy" fill="#FFF3A9" sketch:type="MSShapeGroup"></path>
    </g>
</svg>