<?xml version="1.0" encoding="UTF-8" standalone="no"?>
<svg width="49px" height="98px" viewBox="0 0 49 98" version="1.1" xmlns="http://www.w3.org/2000/svg" xmlns:xlink="http://www.w3.org/1999/xlink" xmlns:sketch="http://www.bohemiancoding.com/sketch/ns">
    <!-- Generator: Sketch 3.3.2 (12043) - http://www.bohemiancoding.com/sketch -->
    <title>Slice 1</title>
    <desc>Created with Sketch.</desc>
    <defs></defs>
    <g id="Page-1" stroke="none" stroke-width="1" fill="none" fill-rule="evenodd" sketch:type="MSPage">
        <g id="Shape-+-Shape" sketch:type="MSLayerGroup" fill="#ffffff">
            <path d="M33.3827722,23.073541 L33.3827722,29.8105585 L26.2034253,22.6329128 L26.2034253,47.0835227 L30.9091299,47.0835227 L30.9091299,51.1155256 L26.2034253,51.1155256 L26.2034253,75.353477 L33.5648077,67.9903933 L33.5648077,74.7325145 L24.1874238,84.1081972 L15.0073869,74.9281603 L15.0073869,68.1928441 L22.1697211,75.353477 L22.1697211,51.1155256 L17.8008674,51.1155256 L17.8008674,47.0835227 L22.1697211,47.0835227 L22.1697211,22.6618344 L14.8236501,30.0096067 L14.8236501,23.2691867 L24.1993327,13.8901016 L33.3827722,23.073541 L33.3827722,23.073541 Z M8.06451613,24.8071321 L8.06451613,73.1945691 C8.06451613,82.0887932 15.3017061,89.3225806 24.1942289,89.3225806 C33.088453,89.3225806 40.3222404,82.0887932 40.3222404,73.1945691 L40.3222404,24.8071321 C40.3222404,15.9112068 33.088453,8.67741935 24.1942289,8.67741935 C15.3000048,8.67741935 8.06451613,15.9129081 8.06451613,24.8071321 L8.06451613,24.8071321 Z" id="Shape" sketch:type="MSShapeGroup"></path>
            <path d="M44.3592338,24.8064516 L44.3592338,73.1952497 C44.3592338,84.3116412 35.3167451,93.3575325 24.1986523,93.3575325 C13.0822608,93.3575325 4.03636958,84.3133425 4.03636958,73.1952497 L4.03636958,24.8064516 C4.03636958,13.6883588 13.0822608,4.64246754 24.1986523,4.64246754 C35.3150438,4.64416886 44.3592338,13.6883588 44.3592338,24.8064516 M0.00255197233,24.8064516 L0.00255197233,73.1952497 C0.00255197233,86.5573768 10.8382265,97.3896487 24.196951,97.3896487 C37.5590782,97.3896487 48.3896487,86.5556755 48.3896487,73.1952497 L48.3896487,24.8064516 C48.3896487,11.4443245 37.5590782,0.610351253 24.196951,0.610351253 C10.8382265,0.612052568 0.00255197233,11.4443245 0.00255197233,24.8064516" id="Shape" sketch:type="MSShapeGroup"></path>
        </g>
    </g>
</svg>